<svg width="21" height="21" viewBox="0 0 21 21" fill="none" xmlns="http://www.w3.org/2000/svg">
<path d="M10.5 18C8.87499 18 7.49666 17.4342 6.36499 16.3025C5.23332 15.1708 4.66721 13.7922 4.66666 12.1667C4.66666 11.0972 4.84388 10.0208 5.19832 8.9375C5.55277 7.85417 6.0111 6.87167 6.57332 5.99C7.13555 5.10833 7.76388 4.38945 8.45832 3.83333C9.15277 3.27722 9.83332 2.99945 10.5 3C11.1805 3 11.8647 3.27778 12.5525 3.83333C13.2403 4.38889 13.8653 5.10778 14.4275 5.99C14.9897 6.87222 15.448 7.85472 15.8025 8.9375C16.1569 10.0203 16.3339 11.0967 16.3333 12.1667C16.3333 13.7917 15.7675 15.1703 14.6358 16.3025C13.5042 17.4347 12.1255 18.0006 10.5 18ZM11.3333 15.5C11.5694 15.5 11.7675 15.42 11.9275 15.26C12.0875 15.1 12.1672 14.9022 12.1667 14.6667C12.1661 14.4311 12.0861 14.2333 11.9267 14.0733C11.7672 13.9133 11.5694 13.8333 11.3333 13.8333C10.6389 13.8333 10.0486 13.5903 9.56249 13.1042C9.07638 12.6181 8.83332 12.0278 8.83332 11.3333C8.83332 11.0972 8.75332 10.8994 8.59332 10.74C8.43332 10.5806 8.23555 10.5006 7.99999 10.5C7.76443 10.4994 7.56666 10.5794 7.40666 10.74C7.24666 10.9006 7.16666 11.0983 7.16666 11.3333C7.16666 12.4861 7.57305 13.4689 8.38582 14.2817C9.1986 15.0944 10.1811 15.5006 11.3333 15.5Z" fill="#F28D00"/>
</svg>
