<svg width="16" height="16" viewBox="0 0 16 16" fill="none" xmlns="http://www.w3.org/2000/svg">
<path d="M6.07134 3.63192C6.47001 2.46525 8.08201 2.42992 8.55468 3.52592L8.59468 3.63259L9.13268 5.20592C9.25597 5.56674 9.45521 5.89693 9.71696 6.1742C9.97871 6.45148 10.2969 6.66939 10.65 6.81325L10.7947 6.86725L12.368 7.40459C13.5347 7.80325 13.57 9.41525 12.4747 9.88792L12.368 9.92792L10.7947 10.4659C10.4337 10.5891 10.1034 10.7883 9.82602 11.0501C9.54863 11.3118 9.33061 11.6301 9.18668 11.9833L9.13268 12.1273L8.59534 13.7013C8.19668 14.8679 6.58468 14.9033 6.11268 13.8079L6.07134 13.7013L5.53401 12.1279C5.4108 11.767 5.21159 11.4367 4.94984 11.1593C4.68808 10.8819 4.36987 10.6639 4.01668 10.5199L3.87268 10.4659L2.29934 9.92859C1.13201 9.52992 1.09668 7.91792 2.19268 7.44592L2.29934 7.40459L3.87268 6.86725C4.2335 6.74396 4.56368 6.54472 4.84096 6.28297C5.11823 6.02122 5.33615 5.70305 5.48001 5.34992L5.53401 5.20592L6.07134 3.63192ZM12.6667 1.33325C12.7914 1.33325 12.9136 1.36824 13.0194 1.43423C13.1253 1.50023 13.2105 1.59459 13.2653 1.70659L13.2973 1.78459L13.5307 2.46859L14.2153 2.70192C14.3403 2.74438 14.4499 2.823 14.5302 2.9278C14.6104 3.0326 14.6578 3.15886 14.6662 3.2906C14.6746 3.42233 14.6437 3.55361 14.5775 3.66778C14.5112 3.78195 14.4126 3.87388 14.294 3.93192L14.2153 3.96392L13.5313 4.19725L13.298 4.88192C13.2555 5.00687 13.1768 5.11638 13.072 5.19658C12.9671 5.27678 12.8408 5.32405 12.7091 5.3324C12.5774 5.34075 12.4461 5.30982 12.332 5.24351C12.2179 5.17719 12.126 5.0785 12.068 4.95992L12.036 4.88192L11.8027 4.19792L11.118 3.96459C10.993 3.92212 10.8835 3.84351 10.8032 3.73871C10.7229 3.63391 10.6756 3.50764 10.6672 3.37591C10.6587 3.24417 10.6896 3.1129 10.7559 2.99873C10.8221 2.88456 10.9208 2.79263 11.0393 2.73459L11.118 2.70259L11.802 2.46925L12.0353 1.78459C12.0803 1.65287 12.1653 1.53852 12.2786 1.45758C12.3918 1.37664 12.5275 1.33317 12.6667 1.33325Z" fill="black"/>
</svg>
