<svg width="16" height="18" viewBox="0 0 16 18" fill="none" xmlns="http://www.w3.org/2000/svg">
<path d="M15.2767 2.49178C14.9664 2.18129 14.5798 1.95798 14.1558 1.84428C14.0652 1.50918 13.9057 1.19662 13.6876 0.926525C13.4696 0.656429 13.1976 0.434713 12.8891 0.2755C12.5806 0.116287 12.2424 0.0230665 11.8959 0.00177637C11.5494 -0.0195138 11.2022 0.0315933 10.8766 0.151842C10.5509 0.272091 10.2539 0.458845 10.0044 0.70021C9.75485 0.941575 9.55834 1.23226 9.42735 1.55375C9.29636 1.87524 9.23377 2.22048 9.24355 2.5675C9.25333 2.91451 9.33527 3.25568 9.48416 3.56928L8.81082 4.24429L8.78249 4.24012C8.00999 4.14262 7.15249 4.20012 6.30832 4.36678C4.64166 4.69678 2.85082 5.48928 1.72332 6.61678C0.58499 7.75512 0.11499 9.09845 0.23499 10.4426C0.353323 11.7618 1.02999 12.9943 2.01832 13.9818C3.00666 14.9693 4.23832 15.6476 5.55749 15.7651C6.90166 15.886 8.24499 15.4151 9.38416 14.2768C10.5108 13.1493 11.3042 11.3601 11.6342 9.69178C11.8008 8.84845 11.8575 7.99012 11.7608 7.21845L11.7567 7.19012L12.4308 6.51512C12.9629 6.76813 13.5672 6.82517 14.1372 6.6762C14.7072 6.52722 15.2063 6.18179 15.5465 5.7008C15.8867 5.21981 16.0462 4.63416 15.9968 4.04708C15.9475 3.46 15.6924 2.9092 15.2767 2.49178Z" fill="#F20000"/>
</svg>
