<svg width="13" height="13" viewBox="0 0 13 13" fill="none" xmlns="http://www.w3.org/2000/svg">
<path d="M5.6496 3.96492L4.79919 3.47742C5.08085 3.03325 5.47627 2.70825 5.92585 2.54575C5.89241 2.43658 5.82499 2.34093 5.73341 2.27273C5.64183 2.20453 5.53087 2.16734 5.41669 2.16659V1.08325C5.83377 1.08325 6.21294 1.24034 6.50002 1.50034V2.16659C6.74377 2.16659 6.93877 2.32909 7.00919 2.54575C6.40794 2.75159 5.92044 3.277 5.6496 3.96492ZM5.41669 5.95825C5.41669 5.54117 5.54127 5.14575 5.74169 4.82617L5.01585 4.4145C4.60419 4.57158 4.33335 4.96159 4.33335 5.41658V5.95825C4.33335 9.777 6.98752 11.2666 8.14127 11.7324C6.7221 10.6274 5.41669 8.77492 5.41669 5.95825ZM3.48294 3.96492L2.63252 3.47742C2.91419 3.03325 3.3096 2.70825 3.75919 2.54575C3.72574 2.43658 3.65832 2.34093 3.56674 2.27273C3.47516 2.20453 3.3642 2.16734 3.25002 2.16659V1.08325C3.6671 1.08325 4.04627 1.24034 4.33335 1.50034V2.16659C4.5771 2.16659 4.7721 2.32909 4.84252 2.54575C4.24127 2.75159 3.75377 3.277 3.48294 3.96492ZM3.25002 5.95825C3.25002 5.54117 3.3746 5.14575 3.57502 4.82617L2.84919 4.4145C2.43752 4.57158 2.16669 4.96159 2.16669 5.41658V5.95825C2.16669 9.777 4.82085 11.2666 5.9746 11.7324C4.55544 10.6274 3.25002 8.77492 3.25002 5.95825ZM10.2917 4.48492L9.6146 4.87492L8.66669 4.33325L7.71877 4.87492L7.04169 4.48492C6.71669 4.6745 6.50002 5.02117 6.50002 5.41658V5.95825C6.50002 10.8333 10.8334 11.9166 10.8334 11.9166V5.41658C10.8334 5.02117 10.6167 4.6745 10.2917 4.48492ZM6.89544 3.59117L7.71877 4.06242L8.66669 3.52075L9.6146 4.06242L10.4379 3.59117C10.14 3.06575 9.70127 2.67575 9.1921 2.51867C9.14621 2.12393 8.95708 1.75976 8.66056 1.49519C8.36404 1.23062 7.98075 1.08404 7.58335 1.08325V2.16659C7.82169 2.16659 8.01669 2.32367 8.09252 2.54034C7.5996 2.70825 7.18252 3.08742 6.89544 3.59117Z" fill="#C5524C"/>
</svg>
