<svg width="21" height="21" viewBox="0 0 21 21" fill="none" xmlns="http://www.w3.org/2000/svg">
<path fill-rule="evenodd" clip-rule="evenodd" d="M5.79667 3.19572C5.93068 3.08284 6.09687 3.01507 6.27161 3.00206C6.44634 2.98904 6.62074 3.03144 6.77 3.12322C9.65 4.89572 11.2283 7.13822 12.07 9.60655C12.2783 10.2174 12.4408 10.8399 12.5667 11.4699C13.4242 10.0282 14.7942 8.88488 16.8575 8.05988C17.003 8.00178 17.1619 7.98587 17.316 8.01397C17.4701 8.04207 17.6132 8.11304 17.7288 8.21875C17.8445 8.32445 17.9279 8.46061 17.9697 8.61159C18.0115 8.76258 18.0099 8.92228 17.965 9.07238L17.8142 9.57572C16.6808 13.349 16.3333 14.5049 16.3333 17.1665C16.3333 17.3876 16.2455 17.5995 16.0893 17.7558C15.933 17.9121 15.721 17.9999 15.5 17.9999H5.5C5.27898 17.9999 5.06702 17.9121 4.91074 17.7558C4.75446 17.5995 4.66667 17.3876 4.66667 17.1665C4.66667 13.9465 4.27333 11.9541 3.0425 8.26322C2.99241 8.11249 2.98643 7.95059 3.02528 7.79658C3.06413 7.64258 3.14618 7.50288 3.26176 7.39394C3.37735 7.28501 3.52167 7.21138 3.6777 7.18172C3.83374 7.15206 3.995 7.16762 4.1425 7.22655C5.305 7.69072 6.18833 8.31072 6.855 9.04322C6.63287 7.36158 6.19771 5.71503 5.56 4.14322C5.49475 3.98047 5.4825 3.80128 5.52499 3.63116C5.56748 3.46105 5.66255 3.30867 5.79667 3.19572Z" fill="#00F24D"/>
</svg>
